<svg width="329" height="93" viewBox="0 0 329 93" fill="none" xmlns="http://www.w3.org/2000/svg">
<g clip-path="url(#clip0_43_62)">
<path d="M275.181 2.10813C295.796 -0.683535 315.569 11.2697 322.69 30.8265C329.81 50.3833 322.352 72.2616 304.773 83.3903C299.463 86.752 293.499 88.9433 287.277 89.8187C263.033 93.2293 240.631 76.295 237.284 52.03C233.939 27.7652 250.921 5.39347 275.181 2.10813ZM282.927 66.5472C294.252 65.548 302.629 55.5607 301.648 44.2278C300.667 32.895 290.698 24.4982 279.369 25.4627C268.016 26.4293 259.603 36.43 260.587 47.7875C261.569 59.1449 271.577 67.5487 282.927 66.5472Z" fill="#EC008B"/>
<path d="M87.61 22.0739C89.2838 21.8963 90.8206 22.4061 92.3142 22.4939C110.313 23.5536 124.98 38.9501 123.935 57.1653C123.837 58.8666 124.164 60.7203 123.683 62.362C123.522 62.9104 122.506 62.7997 122.129 62.7959L85.5022 62.7578C83.7906 62.7564 76.5576 62.6494 75.4887 62.9836C74.2969 64.4532 77.63 69.2906 78.9396 70.5451C83.8769 75.2743 93.1947 74.9859 97.9948 70.2293C98.7615 69.4696 99.3288 68.657 100.09 67.8789C104.025 67.717 108.682 67.9078 112.68 67.8511C115.143 67.8163 120.306 67.7377 122.508 68.0291C122.234 68.9642 121.961 69.9622 121.637 70.8764C118.142 81.3628 105.815 90.849 94.8681 91.8146C83.519 92.8158 73.4249 91.6721 64.4328 83.9992C57.7183 78.3645 53.5531 70.2627 52.8763 61.5204C52.0576 51.3177 53.5579 42.8142 60.1728 34.6853C67.2831 25.9476 76.8201 22.9132 87.61 22.0739ZM75.5301 49.8531C79.7572 50.0573 85.0385 49.9257 89.3362 49.9259C93.2265 49.9209 97.5173 50.0032 101.375 49.8991C99.8566 43.5401 94.0197 40.0599 87.7605 40.0542C85.8036 40.3201 82.8717 40.9492 81.2217 41.9983C78.4502 43.7604 76.383 46.7025 75.5301 49.8531Z" fill="#EC008B"/>
<path d="M166.897 22.5586C167.234 22.5316 167.449 22.5345 167.778 22.5359C174.795 22.5672 180.634 24.4381 185.662 29.477C188.256 32.0765 190.34 35.9054 191.46 39.3866C191.759 40.315 191.895 41.4936 192.102 42.4485C192.203 42.9137 192.675 43.1671 192.73 43.5637C192.968 45.2714 192.952 47.1987 192.966 48.9124L192.979 59.0321C192.974 69.211 193.146 79.8363 192.94 89.9758C189.978 89.9514 171.365 90.2642 170.074 89.5637C169.851 88.4599 170.05 83.2699 170.05 81.8007L170.056 63.6103C170.056 58.4392 170.406 52.1666 169.252 47.1939C167.86 41.1912 159.842 40.5824 155.523 43.8095C153.74 45.1418 153.44 45.4724 152.361 47.4487C150.568 50.2472 151.035 58.6178 151.036 61.9695L151.045 79.8046C151.046 82.9742 151.148 86.7851 150.977 89.9031C147.982 90.0443 144.523 89.9683 141.499 89.9684C136.956 89.9887 132.414 89.9736 127.872 89.9232L127.862 48.7629L127.858 33.3131C127.857 30.3842 127.783 26.9985 127.927 24.1132C132.888 24.2836 138.337 24.0295 143.386 24.1323C143.748 24.6789 144.289 25.2886 144.555 25.7694C145.403 27.3028 146.042 29.1471 147.131 30.5352C147.53 30.5956 148.302 29.6132 148.666 29.287C154.204 24.326 159.787 23.0485 166.897 22.5586Z" fill="#EC008B"/>
<path d="M2.35183 1.84131L49.2338 1.85358L62.9107 1.84863C65.3695 1.84656 68.7043 1.72357 71.0482 1.99142C71.2365 4.10429 71.1419 7.49098 71.14 9.67566L71.122 23.1319C65.2661 23.2532 59.3603 23.0609 53.4998 23.147C51.6208 23.1747 49.6961 23.1774 47.82 23.1313C48.1475 27.151 47.9327 34.402 47.9332 38.5971L47.9276 68.3446L47.902 89.9143C44.775 90.0494 41.1568 89.967 38.0004 89.9675C33.3217 89.9933 28.6427 89.9773 23.9643 89.9194L23.9545 50.4879C23.9543 41.6712 23.746 31.8701 24.0128 23.1197C16.409 23.2482 8.49738 23.1368 0.873406 23.1329C0.75999 20.9101 0.580061 3.57465 0.944522 2.12177C1.27774 1.8077 1.86874 1.85986 2.35183 1.84131Z" fill="#EC008B"/>
<path d="M194.889 35.6775C194.839 33.7359 194.672 23.6196 195.157 22.4087C196.535 21.5709 199.668 21.2593 201.776 20.2012C204.479 18.8448 207.353 18.0444 209.799 15.8462C211.708 14.4644 213.777 12.4771 215.439 10.81C216.376 9.86752 219.035 5.3642 219.939 5.21165C223.562 4.59989 228.965 5.0263 232.755 4.8241C233.109 8.5959 232.951 14.1336 232.951 18.0213L232.95 40.5607L232.887 67.9269C232.934 74.844 233.182 83.1277 232.9 89.9758C230.119 89.9712 211.605 90.3115 210.332 89.6644L210.231 89.3974C210.612 88.5982 211.462 88.1351 211.883 87.6232C214.069 84.968 231.474 68.8198 231.879 67.2543C231.018 66.4842 210.642 67.5257 209.583 66.8469C209.701 66.1047 209.663 65.0936 209.661 64.3282C209.639 55.8042 209.708 47.2763 209.611 38.7532C209.603 37.9885 209.496 37.1777 209.319 36.4367L209.239 35.9907C208.274 35.4709 197.14 35.8601 194.889 35.6775Z" fill="#EC008B"/>
<path d="M209.319 36.4367C209.496 37.1777 209.604 37.9885 209.612 38.7532C209.708 47.2763 209.639 55.8042 209.661 64.3282C209.663 65.0936 209.701 66.1047 209.583 66.8469C209.478 66.4614 209.449 65.8433 209.416 65.4288L209.25 66.0931L209.064 65.9129C209.035 65.6059 208.99 65.2306 208.989 64.922C208.941 57.1805 208.95 49.432 208.989 41.6898C208.998 39.9725 209.263 38.1904 209.319 36.4367Z" fill="#EC008B" fill-opacity="0.101961"/>
<path d="M321.464 0H323.881C324.649 0.876707 326.066 1.16062 326.994 2.08314C327.794 2.87775 327.84 3.86989 328.77 4.43001V8.61443C328.065 8.90069 328.012 8.97914 327.623 9.62425C325.622 12.9461 323.037 12.6805 319.613 11.7242C319.326 11.3426 317.499 9.55778 316.975 8.99106L316.969 8.94797C316.678 6.95089 316.508 4.35346 317.831 2.75444C318.443 2.01598 319.481 0.943964 320.449 0.781733C321.119 0.669767 321.099 0.494169 321.464 0ZM319.017 2.85152C318.051 4.71449 317.251 5.7589 317.996 7.96123C318.942 10.7536 320.99 11.1641 323.485 11.111C326.758 10.9432 327.591 7.85889 327.432 5.08978L327.4 4.56489C325.753 2.11451 324.747 1.59157 321.727 1.84199C320.539 1.96458 320.048 2.25102 319.017 2.85152Z" fill="#EC008B" fill-opacity="0.988235"/>
<path d="M320.889 2.92935C322.066 2.90382 322.897 2.91032 324.069 2.99521C325.601 5.11338 324.912 5.14613 324.421 7.56594C324.39 7.71532 325.021 8.77457 324.653 9.39851C324.207 9.30056 323.973 8.94088 323.676 8.59013C323.071 7.59376 322.743 7.05448 321.932 6.20053C321.698 7.18291 321.976 8.481 321.168 9.24476L320.952 9.06336C320.544 7.5928 320.603 4.40389 320.889 2.92935ZM321.658 6.06326L323.647 5.94042C323.801 5.23076 323.937 5.15276 323.722 4.55393C323.226 4.15416 322.464 4.13464 321.81 3.94004L321.658 6.06326Z" fill="#EC008B" fill-opacity="0.984314"/>
</g>
<defs>
<clipPath id="clip0_43_62">
<rect width="328.77" height="93" fill="white"/>
</clipPath>
</defs>
</svg>
