<svg width="300" height="96" viewBox="0 0 300 96" fill="none" xmlns="http://www.w3.org/2000/svg">
<path d="M285.426 51.8924C282.728 71.1291 265.642 85.0171 246.271 83.7193C226.9 82.4216 211.818 66.3785 211.708 46.9536C211.597 27.5289 226.495 11.315 245.85 9.79667C265.205 8.27833 282.448 21.9709 285.365 41.1755C285.492 41.4787 285.836 42.3304 285.842 42.6144C285.88 44.597 286.186 50.2119 285.426 51.8924ZM250.872 64.1995C257.153 63.4422 262.545 59.3661 264.989 53.526C267.432 47.686 266.55 40.9829 262.68 35.9736C258.811 30.9644 252.549 28.4218 246.286 29.3159C236.746 30.6773 230.078 39.4678 231.335 49.0271C232.592 58.5863 241.305 65.3527 250.872 64.1995Z" fill="#0E1829"/>
<path d="M285.365 41.1755C285.492 41.4787 285.836 42.3304 285.842 42.6144C285.88 44.597 286.187 50.2119 285.426 51.8924C285.924 48.3361 285.904 44.726 285.365 41.1755Z" fill="#0E1829"/>
<path d="M74.5672 83.5993C73.2278 82.8146 71.5535 82.1952 70.1503 81.4062C52.8604 71.6859 51.1915 44.3787 67.5294 32.7483C74.5401 27.7644 83.2583 25.8076 91.7249 27.3176C107.194 29.9435 116.998 42.4404 116.071 58.0891C116.022 58.9197 115.927 59.6773 115.786 60.4979C111.93 60.7551 106.475 60.5454 102.499 60.58C93.3421 60.6597 84.1152 60.5099 74.9551 60.6167C74.9557 60.6591 74.9564 60.7016 74.9576 60.744C75.0396 63.3673 76.1721 65.8475 78.1003 67.6269C80.0848 69.4845 83.7023 70.6903 86.3702 70.4885C90.8178 70.152 93.1 68.934 96.008 65.8117C96.0984 65.7427 96.1945 65.6814 96.2952 65.6287C97.4041 65.041 112.718 65.2249 114.102 65.6425C114.135 66.0522 114.166 66.7934 114.062 67.1675C112.061 74.3809 104.432 81.3057 97.8613 83.6041C95.6781 84.445 94.7326 84.5372 92.4971 84.9735C86.1076 86.2205 80.731 85.4324 74.5672 83.5993ZM91.2641 42.5528C88.008 41.3463 84.0719 41.4985 80.8205 42.743C78.9026 43.477 74.6785 48.0422 75.4719 50.1199C76.3255 50.8192 93.4658 50.5562 95.8824 50.3181C96.2157 50.2852 96.5305 50.2338 96.8522 50.1368C97.4223 49.2984 96.9888 48.5419 96.5249 47.7486C95.2789 45.0933 93.8126 43.883 91.2641 42.5528Z" fill="#0E1829"/>
<path d="M96.0081 65.8117C96.0984 65.7427 96.1945 65.6814 96.2953 65.6287C97.4042 65.041 112.718 65.2249 114.103 65.6425C107.968 65.9347 102.105 65.7445 96.0081 65.8117Z" fill="#0E1829"/>
<path d="M135.618 33.7765C137.325 33.0869 138.388 31.8984 139.878 30.917C150.693 23.7937 166.712 26.3059 172.055 39.0231C172.35 39.7563 172.998 41.4638 173.352 42.1004C174.442 43.7985 174.164 78.8653 174.056 83.5652C173.846 83.8284 173.754 83.8581 173.379 83.8593C168.397 83.8756 163.409 83.9048 158.426 83.8819C157.737 83.8788 156.955 83.8363 156.284 83.7085C155.43 83.6776 155.388 83.5562 155.382 82.7019C155.328 74.5519 155.393 66.3993 155.37 58.2493C155.361 55.0265 155.442 51.6983 154.988 48.5083C154.906 47.9354 154.696 47.4073 154.446 46.8888C154.427 46.8237 154.409 46.7897 154.38 46.7303C152.281 42.6533 147.208 42.0558 143.394 44.293C137.1 47.8032 138.718 57.7255 138.597 63.9299C138.476 70.1772 138.546 77.0317 138.629 83.3134C138.442 83.6012 138.431 83.7019 138.079 83.7833C136.612 84.122 120.69 84.0334 120.074 83.5976C120.02 83.559 119.977 83.5202 119.933 83.4706C119.785 79.4213 119.893 75.0297 119.881 70.9446L119.849 48.1256L119.881 37.4953C119.871 34.8293 119.774 31.5321 120.08 28.9045C123.742 28.6822 127.696 28.9007 131.376 28.9075C133.925 28.912 134.169 32.0022 135.618 33.7765Z" fill="#0E1829"/>
<path d="M119.933 83.4706C121.084 82.9734 132.92 83.33 135.024 83.3004C135.799 83.2896 138.03 83.5422 138.629 83.3133C138.442 83.6012 138.431 83.7019 138.079 83.7832C136.612 84.1219 120.69 84.0334 120.074 83.5975C120.02 83.559 119.977 83.5201 119.933 83.4706Z" fill="#0E1829"/>
<path d="M156.284 83.7085C156.379 83.6465 156.731 83.4121 156.798 83.4133C159.902 83.4738 171.746 82.6406 174.056 83.5651C173.846 83.8284 173.754 83.8581 173.379 83.8593C168.397 83.8756 163.409 83.9047 158.426 83.8819C157.737 83.8788 156.955 83.8363 156.284 83.7085Z" fill="#0E1829"/>
<path d="M12.5866 26.9544C12.3826 25.0926 12.2681 11.1259 12.8748 10.0335C13.9913 9.11277 20.5952 9.47442 22.4011 9.46394L42.816 9.475C48.7581 9.40478 54.7007 9.38101 60.6433 9.40367C62.2275 9.41038 69.8799 9.21642 70.7069 10.0993C70.9973 10.6714 71.092 11.2522 71.1449 11.8867C71.2863 13.5827 71.3075 25.7708 70.9842 26.751C70.9543 26.8416 70.814 26.9275 70.7397 26.9908C68.8426 27.4202 66.5419 27.1932 64.5796 27.2304C60.4224 27.3093 55.6253 26.9867 51.5438 27.4472C51.8752 29.0474 51.8268 34.173 51.8205 36.0102L51.7932 49.0277L51.7984 70.3596C51.8002 72.9913 51.9905 78.2233 51.8153 80.6659C51.838 81.3304 52.0457 83.5584 51.6004 83.9084C47.8958 83.6363 43.7708 84.0665 40.0286 83.9353C37.4438 83.8448 34.7216 84.1572 32.17 83.6233C32.0138 82.3744 32.0953 79.1913 32.0988 77.8174L32.1111 67.0503C32.1127 53.8747 32.253 40.413 32.0613 27.2656C31.1835 27.2294 30.2942 27.2438 29.4149 27.2489L20.4218 27.2845C17.9654 27.2952 14.9446 27.433 12.5866 26.9544Z" fill="#0E1829"/>
<path d="M51.465 83.2376C51.5933 82.334 51.5501 81.5692 51.8152 80.666C51.8379 81.3305 52.0457 83.5584 51.6003 83.9084C47.8958 83.6364 43.7708 84.0666 40.0285 83.9354C37.4438 83.8448 34.7215 84.1573 32.1699 83.6233C34.244 82.8455 44.6198 83.3805 47.4806 83.2694C48.5719 83.2269 50.2417 83.4258 51.465 83.2376Z" fill="#0E1829"/>
<path d="M200.782 12.4525C203.118 12.5164 205.456 12.4945 207.791 12.3867C208.1 18.3728 207.885 25.7242 207.888 31.8519L207.885 64.1117C205.151 63.5007 190.151 64.6263 188.817 63.618C188.143 61.6893 188.509 41.5953 188.525 37.9341C186.772 37.9004 177.302 38.2262 176.511 37.5379C175.963 36.3701 176.172 28.5397 176.421 27.0191C177.625 26.4769 179.351 26.1516 180.65 25.6952C186.029 23.8077 190.885 20.6831 194.413 16.1573C195.483 14.7834 195.951 13.7867 197.398 12.705L198.035 12.5352C198.466 12.5817 200.253 12.4739 200.782 12.4525Z" fill="#0E1829"/>
<path d="M204.486 68.0465C205.753 66.6898 206.527 66.1916 207.602 64.6225C208.05 69.3092 207.905 73.3302 207.886 78.0216C207.882 79.3181 207.795 82.058 207.905 83.2283L207.797 83.7469C207.035 83.9159 203.395 83.8896 202.409 83.8927C197.958 83.9066 193.518 84.0579 189.079 83.7445C189.721 82.9526 190.162 82.342 190.878 81.5897C191.678 80.9061 198.3 74.3739 198.693 73.7626C200.174 72.3714 201.625 70.9506 203.048 69.5009C203.188 69.4064 204.293 68.2466 204.486 68.0465Z" fill="#0E1829"/>
<path d="M190.878 81.5897C190.821 81.9621 190.645 82.6954 190.802 82.9821C192.505 83.311 195.195 83.2167 196.956 83.2324C200.54 83.2642 204.103 83.1542 207.686 83.4255L207.905 83.2283L207.797 83.7469C207.035 83.9159 203.395 83.8896 202.409 83.8927C197.958 83.9066 193.518 84.0579 189.079 83.7445C189.721 82.9526 190.162 82.342 190.878 81.5897Z" fill="#0E1829"/>
<path d="M279.554 10.7153C279.769 10.5428 280.062 10.1055 280.286 9.90803C282.917 7.59484 284.184 8.02375 286.83 9.28607C285.883 9.97206 284.963 8.83686 284.518 10.0323C284.607 10.3895 284.599 10.7728 284.75 10.9699C283.654 10.7753 282.817 8.6014 282.086 11.3826C281.854 11.0311 281.593 10.8699 281.208 10.7459C280.613 10.7497 280.308 10.9794 279.794 11.2732L279.554 10.7153Z" fill="#0E1829"/>
<path d="M282.126 11.5381C282.688 11.0059 284.203 11.1896 285.124 11.117C285.892 12.2716 285.245 12.7481 285.095 14.0127C285.05 14.3906 285.205 14.7074 284.997 15.0448C284.558 14.6893 284.155 14.2827 283.607 14.1998C283.11 14.2646 282.956 14.4581 282.598 14.7966C283.022 13.9796 283.219 13.8558 282.722 13.0484C282.644 12.6573 282.614 12.3527 282.379 12.0259C282.196 12.3473 282.255 12.8171 282.265 13.2003L282.252 14.7359C282.061 13.7989 282.114 12.5151 282.126 11.5381ZM284.067 13.3028C284.48 13.0144 284.748 12.877 284.94 12.4047L284.871 12.0568C284.332 11.7043 284.224 11.7599 283.481 11.8025C282.911 12.0786 282.976 11.9416 282.747 12.4014C282.923 12.9227 283.589 13.1259 284.067 13.3028Z" fill="#0E1829"/>
<path d="M283.481 11.8025C284.224 11.7598 284.332 11.7043 284.871 12.0567L284.94 12.4046C284.748 12.877 284.48 13.0144 284.067 13.3027C283.589 13.1258 282.923 12.9227 282.747 12.4013C282.976 11.9415 282.911 12.0786 283.481 11.8025Z" fill="#0E1829"/>
<path d="M284.75 10.9699C284.599 10.7728 284.607 10.3895 284.518 10.0323C284.963 8.83686 285.883 9.97207 286.83 9.28607C287.451 9.99139 288.177 10.8606 288.346 11.8166L288.24 12.1228C287.106 11.677 287.878 9.4559 285.604 10.9562C285.596 12.4275 285.542 13.7827 285.483 15.2535L285.284 15.3185C285.224 15.2646 285.031 15.0978 284.997 15.0448C285.205 14.7074 285.05 14.3906 285.095 14.0127C285.245 12.7481 285.892 12.2716 285.124 11.117L284.75 10.9699Z" fill="#0E1829"/>
<path d="M282.086 11.3826C282.817 8.60138 283.654 10.7752 284.75 10.9699L285.125 11.117C284.203 11.1896 282.688 11.0059 282.126 11.5381L282.086 11.3826Z" fill="#0E1829"/>
<path d="M279.243 11.7765L279.441 11.8738C279.532 12.5747 279.527 13.7497 279.628 14.2553C279.671 14.6596 279.784 15.172 279.593 15.5089L279.439 15.3553C279.119 13.7623 279.161 13.3764 279.243 11.7765Z" fill="#0E1829"/>
<path d="M282.265 13.2002L282.722 13.0483C283.219 13.8557 283.022 13.9795 282.598 14.7966L282.561 14.9943L282.385 15.0756L282.252 14.7359L282.265 13.2002Z" fill="#0E1829"/>
<path d="M279.554 10.7153L279.794 11.2732C279.516 12.119 279.678 13.3427 279.628 14.2552C279.527 13.7496 279.532 12.5747 279.441 11.8737L279.243 11.7765C279.23 11.3728 279.391 11.0827 279.554 10.7153Z" fill="#0E1829"/>
<path d="M282.265 13.2003C282.255 12.8171 282.196 12.3473 282.379 12.0259C282.614 12.3527 282.644 12.6573 282.722 13.0484L282.265 13.2003Z" fill="#0E1829"/>
</svg>
